<?xml version="1.0" encoding="utf-8"?>
<!-- Generator: Adobe Illustrator 15.1.0, SVG Export Plug-In . SVG Version: 6.00 Build 0)  -->
<!DOCTYPE svg PUBLIC "-//W3C//DTD SVG 1.1//EN" "http://www.w3.org/Graphics/SVG/1.1/DTD/svg11.dtd">
<svg version="1.1" id="Calque_1" xmlns="http://www.w3.org/2000/svg" xmlns:xlink="http://www.w3.org/1999/xlink" x="0px" y="0px"
	 width="113.386px" height="113.386px" viewBox="0 0 113.386 113.386" enable-background="new 0 0 113.386 113.386"
	 xml:space="preserve">
<path d="M88.47,24.815c-3.186-3.188-8.357-3.188-11.547,0.002l-8.516,8.516c-0.003-0.003-0.007-0.005-0.01-0.008l-0.56-0.56
	l-0.057,0.057c-2.338-1.775-5.675-1.621-7.81,0.512c-2.132,2.135-2.289,5.472-0.51,7.81L59.405,41.2l0.297,0.297
	c-9.347,9.347-31.757,31.756-33.168,33.165c-2.526,2.527-1.775,5.057-1.326,6.568c0.118,0.397,0.315,1.062,0.231,1.258l-3.891,3.892
	c-0.538,0.537-0.538,1.408-0.001,1.946c0.269,0.269,0.621,0.403,0.974,0.403c0.352,0,0.704-0.134,0.973-0.402l3.893-3.893
	c1.268-1.269,0.801-2.84,0.46-3.987c-0.41-1.381-0.733-2.471,0.633-3.839c1.41-1.407,23.822-23.818,33.169-33.165l8.394,8.393
	l-6.327,6.326l-4.195-4.198c-0.717-0.717-1.878-0.717-2.595-0.001s-0.717,1.878-0.001,2.595l4.196,4.199l-4.379,4.379l-4.195-4.198
	c-0.716-0.717-1.877-0.717-2.595-0.001c-0.717,0.716-0.717,1.878-0.001,2.595l4.196,4.199l-4.379,4.379l-4.195-4.198
	c-0.717-0.716-1.878-0.717-2.595,0c-0.716,0.716-0.717,1.878,0,2.595l4.196,4.197L36.874,85c-1.368,1.366-2.46,1.045-3.838,0.635
	c-1.149-0.34-2.719-0.807-3.987,0.461l-3.893,3.893c-0.537,0.538-0.537,1.409,0.001,1.946c0.269,0.269,0.621,0.402,0.973,0.402
	c0.353,0,0.705-0.135,0.974-0.403l3.917-3.914c0.169-0.06,0.834,0.137,1.232,0.254c1.512,0.449,4.042,1.2,6.567-1.327l33.215-33.212
	c2.339,1.871,5.75,1.749,7.919-0.42c2.329-2.328,2.329-6.105,0-8.433l-0.001-0.001l8.516-8.516
	C91.663,33.174,91.663,28.004,88.47,24.815z"/>
</svg>
