<?xml version="1.0" encoding="utf-8"?>
<!-- Generator: Adobe Illustrator 15.1.0, SVG Export Plug-In . SVG Version: 6.00 Build 0)  -->
<!DOCTYPE svg PUBLIC "-//W3C//DTD SVG 1.1//EN" "http://www.w3.org/Graphics/SVG/1.1/DTD/svg11.dtd">
<svg version="1.1" id="Calque_1" xmlns="http://www.w3.org/2000/svg" xmlns:xlink="http://www.w3.org/1999/xlink" x="0px" y="0px"
	 width="113.386px" height="113.386px" viewBox="0 0 113.386 113.386" enable-background="new 0 0 113.386 113.386"
	 xml:space="preserve">
<path d="M49.708,87.496c-2.562,0-4.978-1.127-6.626-3.091L26.183,64.275c-1.486-1.77-2.195-4.014-1.994-6.316
	c0.202-2.303,1.287-4.39,3.058-5.876c1.556-1.306,3.529-2.025,5.557-2.025c2.567,0,4.986,1.125,6.636,3.09l9.63,11.476l24.41-35.025
	c1.618-2.321,4.276-3.707,7.109-3.707c1.771,0,3.479,0.538,4.938,1.555c3.915,2.728,4.88,8.132,2.151,12.047l-30.87,44.296
	c-1.529,2.195-4.039,3.577-6.712,3.697C49.958,87.493,49.833,87.496,49.708,87.496z"/>
</svg>
